<svg viewBox="0 0 2200 2200" preserveAspectRatio="xMinYMin meet"><g transform="translate(1100,1100)"><defs><linearGradient id="linkGrad-chart-008dae29-3-7" gradientUnits="userSpaceOnUse" x1="820.9387012174693" y1="-150.3888587740949" x2="41.69395955986677" y2="833.5579006501109"><stop offset="0%" stop-color="#984ea3"></stop><stop offset="100%" stop-color="#f781bf"></stop></linearGradient><linearGradient id="linkGrad-chart-008dae29-1-16" gradientUnits="userSpaceOnUse" x1="265.8895332900717" y1="-791.1130867877157" x2="-209.94182392130054" y2="-807.7633258378332"><stop offset="0%" stop-color="#377eb8"></stop><stop offset="100%" stop-color="#f781bf"></stop></linearGradient><linearGradient id="linkGrad-chart-008dae29-5-15" gradientUnits="userSpaceOnUse" x1="654.564012338298" y1="517.7867454383015" x2="-510.05432354399807" y2="-660.6071048922154"><stop offset="0%" stop-color="#ffff33"></stop><stop offset="100%" stop-color="#a65628"></stop></linearGradient><linearGradient id="linkGrad-chart-008dae29-9-10" gradientUnits="userSpaceOnUse" x1="-658.8710924169891" y1="512.2948795149563" x2="-756.3409150580968" y2="352.85348263703014"><stop offset="0%" stop-color="#e41a1c"></stop><stop offset="100%" stop-color="#377eb8"></stop></linearGradient><linearGradient id="linkGrad-chart-008dae29-10-12" gradientUnits="userSpaceOnUse" x1="-814.403598950459" y1="182.49366568881217" x2="-828.0213446282384" y2="-104.58399896754845"><stop offset="0%" stop-color="#377eb8"></stop><stop offset="100%" stop-color="#984ea3"></stop></linearGradient><linearGradient id="linkGrad-chart-008dae29-3-13" gradientUnits="userSpaceOnUse" x1="552.4192662451094" y1="-625.6117919934175" x2="-741.672305254858" y2="-382.72620973477217"><stop offset="0%" stop-color="#984ea3"></stop><stop offset="100%" stop-color="#ff7f00"></stop></linearGradient><linearGradient id="linkGrad-chart-008dae29-12-14" gradientUnits="userSpaceOnUse" x1="-804.8492896297342" y1="-220.85013240320305" x2="-683.2966676149157" y2="-479.2314931495545"><stop offset="0%" stop-color="#984ea3"></stop><stop offset="100%" stop-color="#ffff33"></stop></linearGradient><linearGradient id="linkGrad-chart-008dae29-4-9" gradientUnits="userSpaceOnUse" x1="744.0038284057102" y1="378.1738532971925" x2="-576.581192822047" y2="603.4163472130213"><stop offset="0%" stop-color="#ff7f00"></stop><stop offset="100%" stop-color="#e41a1c"></stop></linearGradient><linearGradient id="linkGrad-chart-008dae29-8-11" gradientUnits="userSpaceOnUse" x1="-522.5157111789149" y1="650.7952762360778" x2="-831.0295056243309" y2="77.11757764466016"><stop offset="0%" stop-color="#999999"></stop><stop offset="100%" stop-color="#4daf4a"></stop></linearGradient><linearGradient id="linkGrad-chart-008dae29-0-2" gradientUnits="userSpaceOnUse" x1="29.1863694386556" y1="-834.0895130853704" x2="480.5005364294431" y2="-682.4048611279212"><stop offset="0%" stop-color="#e41a1c"></stop><stop offset="100%" stop-color="#4daf4a"></stop></linearGradient><linearGradient id="linkGrad-chart-008dae29-6-15" gradientUnits="userSpaceOnUse" x1="547.1541966565362" y1="630.2217427867279" x2="-618.1681534145395" y2="-560.7363855717393"><stop offset="0%" stop-color="#a65628"></stop><stop offset="100%" stop-color="#a65628"></stop></linearGradient><linearGradient id="linkGrad-chart-008dae29-7-13" gradientUnits="userSpaceOnUse" x1="-452.7730092318044" y1="701.1089516695507" x2="-772.0843490138745" y2="-316.92730713496707"><stop offset="0%" stop-color="#f781bf"></stop><stop offset="100%" stop-color="#ff7f00"></stop></linearGradient><linearGradient id="linkGrad-chart-008dae29-7-11" gradientUnits="userSpaceOnUse" x1="-480.1001992763466" y1="682.6865742453211" x2="-833.9673864712574" y2="32.48935675417852"><stop offset="0%" stop-color="#f781bf"></stop><stop offset="100%" stop-color="#4daf4a"></stop></linearGradient><linearGradient id="linkGrad-chart-008dae29-11-13" gradientUnits="userSpaceOnUse" x1="-834.4466502126434" y1="-15.998373320387019" x2="-783.1844450998273" y2="-288.40819155092623"><stop offset="0%" stop-color="#4daf4a"></stop><stop offset="100%" stop-color="#ff7f00"></stop></linearGradient><linearGradient id="linkGrad-chart-008dae29-10-14" gradientUnits="userSpaceOnUse" x1="-793.3318778391355" y1="259.1943124457615" x2="-646.0464364472929" y2="-528.3759664800757"><stop offset="0%" stop-color="#377eb8"></stop><stop offset="100%" stop-color="#ffff33"></stop></linearGradient><linearGradient id="linkGrad-chart-008dae29-6-11" gradientUnits="userSpaceOnUse" x1="521.1108329599623" y1="651.92074654192" x2="-834.5700378314724" y2="7.071913035012289"><stop offset="0%" stop-color="#a65628"></stop><stop offset="100%" stop-color="#4daf4a"></stop></linearGradient></defs><g class="group"><path d="M5.621496202126096e-14,-918.0600000000001A918.0600000000001,918.0600000000001,0,0,1,64.17073841648637,-915.8145445072835L58.920405273319304,-840.8842635930511A842.946,842.946,0,0,0,5.1615556037703245e-14,-842.946Z" style="fill: rgb(228, 26, 28);"></path><text class="titles" dy="-16"><textPath startOffset="50%" xlink:href="#arc-chart-008dae29-0" style="text-anchor: middle;">Lain</textPath></text></g><g class="group"><path d="M73.32552271638187,-915.1270574725509A918.0600000000001,918.0600000000001,0,0,1,494.26519607502314,-773.6511355571831L453.82531639615763,-710.3524062843227A842.946,842.946,0,0,0,67.32616176685971,-840.253025497524Z" style="fill: rgb(55, 126, 184);"></path><text class="titles" dy="-16"><textPath startOffset="50%" xlink:href="#arc-chart-008dae29-1" style="text-anchor: middle;">Runaan</textPath></text></g><g class="group"><path d="M501.9768654355231,-768.6698837391295A918.0600000000001,918.0600000000001,0,0,1,554.4777339281551,-731.702539409218L509.1113738794878,-671.8359680030093A842.946,842.946,0,0,0,460.90603099079846,-705.7787114332008Z" style="fill: rgb(77, 175, 74);"></path><text class="titles" dy="-16"><textPath startOffset="50%" xlink:href="#arc-chart-008dae29-2" style="text-anchor: middle;">Tiadrin</textPath></text></g><g class="group"><path d="M561.7669137167691,-726.1212696603346A918.0600000000001,918.0600000000001,0,0,1,838.1929217150424,374.5220815743724L769.613500847448,343.8793658091965A842.946,842.946,0,0,0,515.8041662308516,-666.7113475972163Z" style="fill: rgb(152, 78, 163);"></path><text class="titles" dy="25"><textPath startOffset="50%" xlink:href="#arc-chart-008dae29-3" style="text-anchor: middle;">Rayla</textPath></text></g><g class="group"><path d="M834.4058540224937,382.8851451453725A918.0600000000001,918.0600000000001,0,0,1,801.0896927541382,448.43000319233823L735.5459906197087,411.74027565841965A842.946,842.946,0,0,0,766.1362841479261,351.55817872438746Z" style="fill: rgb(255, 127, 0);"></path><text class="titles" dy="25"><textPath startOffset="50%" xlink:href="#arc-chart-008dae29-4" style="text-anchor: middle;">Reader</textPath></text></g><g class="group"><path d="M796.5654133093236,456.41834529228385A918.0600000000001,918.0600000000001,0,0,1,627.5332656367017,670.101607309919L576.1896348118806,615.2751121663802A842.946,842.946,0,0,0,731.3918794931062,419.07502613200603Z" style="fill: rgb(255, 255, 51);"></path><text class="titles" dy="25"><textPath startOffset="50%" xlink:href="#arc-chart-008dae29-5" style="text-anchor: middle;">Janai</textPath></text></g><g class="group"><path d="M620.8009848448349,676.343330576774A918.0600000000001,918.0600000000001,0,0,1,563.8689760197184,724.490125179408L517.734241618105,665.2136603920019A842.946,842.946,0,0,0,570.0081769938938,621.0061489841288Z" style="fill: rgb(166, 86, 40);"></path><text class="titles" dy="25"><textPath startOffset="50%" xlink:href="#arc-chart-008dae29-6" style="text-anchor: middle;">Gren</textPath></text></g><g class="group"><path d="M556.5960023018185,730.0924967575232A918.0600000000001,918.0600000000001,0,0,1,-541.1621016118742,741.604843146955L-496.8852023890845,680.9280832531132A842.946,842.946,0,0,0,511.05632938621517,670.3576561137259Z" style="fill: rgb(247, 129, 191);"></path><text class="titles" dy="25"><textPath startOffset="50%" xlink:href="#arc-chart-008dae29-7" style="text-anchor: middle;">Callum</textPath></text></g><g class="group"><path d="M-548.5509685635573,736.1562323909126A918.0600000000001,918.0600000000001,0,0,1,-600.2343888437854,694.6602349705413L-551.1243024838393,637.8243975638607A842.946,842.946,0,0,0,-503.6695256810844,675.9252679225651Z" style="fill: rgb(153, 153, 153);"></path><text class="titles" dy="25"><textPath startOffset="50%" xlink:href="#arc-chart-008dae29-8" style="text-anchor: middle;">Marcos</textPath></text></g><g class="group"><path d="M-607.1508639480184,688.6232583983605A918.0600000000001,918.0600000000001,0,0,1,-780.8868825055139,482.75235921828494L-716.9961375732445,443.2544389186071A842.946,842.946,0,0,0,-557.4748841704532,632.2813554384945Z" style="fill: rgb(228, 26, 28);"></path><text class="titles" dy="25"><textPath startOffset="50%" xlink:href="#arc-chart-008dae29-9" style="text-anchor: middle;">Aaravos</textPath></text></g><g class="group"><path d="M-785.6752816206155,474.9194831235783A918.0600000000001,918.0600000000001,0,0,1,-909.2512667722468,126.87118456554427L-834.857981309063,116.49081491927247A842.946,842.946,0,0,0,-721.3927585789287,436.0624345043764Z" style="fill: rgb(55, 126, 184);"></path><text class="titles" dy="25"><textPath startOffset="50%" xlink:href="#arc-chart-008dae29-10" style="text-anchor: middle;">Viren</textPath></text></g><g class="group"><path d="M-910.4744952883254,117.77247993257663A918.0600000000001,918.0600000000001,0,0,1,-917.5344523849135,-31.059495918591463L-842.4634517352388,-28.51826443434307A842.946,842.946,0,0,0,-835.9811274920079,108.1365497562749Z" style="fill: rgb(77, 175, 74);"></path><text class="titles" dy="25"><textPath startOffset="50%" xlink:href="#arc-chart-008dae29-11" style="text-anchor: middle;">Soren</textPath></text></g><g class="group"><path d="M-917.1779862619699,-40.233134558941764A918.0600000000001,918.0600000000001,0,0,1,-869.0659012768324,-295.9030632451902L-797.9605093541825,-271.6928126160383A842.946,842.946,0,0,0,-842.1361510223542,-36.94133264048289Z" style="fill: rgb(152, 78, 163);"></path><text class="titles" dy="-16"><textPath startOffset="50%" xlink:href="#arc-chart-008dae29-12" style="text-anchor: middle;">Harrow</textPath></text></g><g class="group"><path d="M-866.063467028357,-304.578782384496A918.0600000000001,918.0600000000001,0,0,1,-786.8288095753621,-473.00590696334723L-722.4519069737415,-434.3054236663461A842.946,842.946,0,0,0,-795.203728816946,-279.65870018940086Z" style="fill: rgb(255, 127, 0);"></path><text class="titles" dy="-16"><textPath startOffset="50%" xlink:href="#arc-chart-008dae29-13" style="text-anchor: middle;">Claudia</textPath></text></g><g class="group"><path d="M-782.0594882270178,-480.8504138233585A918.0600000000001,918.0600000000001,0,0,1,-702.7167106581932,-590.782014081107L-645.2217070588864,-542.4453038381073A842.946,842.946,0,0,0,-718.0728028266254,-441.508107237811Z" style="fill: rgb(255, 255, 51);"></path><text class="titles" dy="-16"><textPath startOffset="50%" xlink:href="#arc-chart-008dae29-14" style="text-anchor: middle;">Sarai</textPath></text></g><g class="group"><path d="M-696.7738534378237,-597.7795252142769A918.0600000000001,918.0600000000001,0,0,1,-447.02045654311746,-801.8770947171287L-410.446055553226,-736.2689687857272A842.946,842.946,0,0,0,-639.7650836110927,-548.8702913331088Z" style="fill: rgb(166, 86, 40);"></path><text class="titles" dy="-16"><textPath startOffset="50%" xlink:href="#arc-chart-008dae29-15" style="text-anchor: middle;">Amaya</textPath></text></g><g class="group"><path d="M-438.97946840489135,-806.3071312589012A918.0600000000001,918.0600000000001,0,0,1,-9.180446990767468,-918.0140973825238L-8.429319509704674,-842.9038530512263A842.946,842.946,0,0,0,-403.0629664444911,-740.3365477922639Z" style="fill: rgb(247, 129, 191);"></path><text class="titles" dy="-16"><textPath startOffset="50%" xlink:href="#arc-chart-008dae29-16" style="text-anchor: middle;">Ethari</textPath></text></g><path class="hiddenArcs" id="arc-chart-008dae29-0" d="M5.621496202126096e-14 -918.0600000000001A918.0600000000001 918.0600000000001 0 0 1 64.17073841648637 -915.8145445072835" style="fill: none;"></path><path class="hiddenArcs" id="arc-chart-008dae29-1" d="M73.32552271638187 -915.1270574725509A918.0600000000001 918.0600000000001 0 0 1 494.26519607502314 -773.6511355571831" style="fill: none;"></path><path class="hiddenArcs" id="arc-chart-008dae29-2" d="M501.9768654355231 -768.6698837391295A918.0600000000001 918.0600000000001 0 0 1 554.4777339281551 -731.702539409218" style="fill: none;"></path><path class="hiddenArcs" id="arc-chart-008dae29-3" d="M838.1929217150424 374.5220815743724A918.0600000000001 918.0600000000001 0 0 0 561.7669137167691 -726.1212696603346" style="fill: none;"></path><path class="hiddenArcs" id="arc-chart-008dae29-4" d="M801.0896927541382 448.43000319233823A918.0600000000001 918.0600000000001 0 0 0 834.4058540224937 382.8851451453725" style="fill: none;"></path><path class="hiddenArcs" id="arc-chart-008dae29-5" d="M627.5332656367017 670.101607309919A918.0600000000001 918.0600000000001 0 0 0 796.5654133093236 456.41834529228385" style="fill: none;"></path><path class="hiddenArcs" id="arc-chart-008dae29-6" d="M563.8689760197184 724.490125179408A918.0600000000001 918.0600000000001 0 0 0 620.8009848448349 676.343330576774" style="fill: none;"></path><path class="hiddenArcs" id="arc-chart-008dae29-7" d="M-541.1621016118742 741.604843146955A918.0600000000001 918.0600000000001 0 0 0 556.5960023018185 730.0924967575232" style="fill: none;"></path><path class="hiddenArcs" id="arc-chart-008dae29-8" d="M-600.2343888437854 694.6602349705413A918.0600000000001 918.0600000000001 0 0 0 -548.5509685635573 736.1562323909126" style="fill: none;"></path><path class="hiddenArcs" id="arc-chart-008dae29-9" d="M-780.8868825055139 482.75235921828494A918.0600000000001 918.0600000000001 0 0 0 -607.1508639480184 688.6232583983605" style="fill: none;"></path><path class="hiddenArcs" id="arc-chart-008dae29-10" d="M-909.2512667722468 126.87118456554427A918.0600000000001 918.0600000000001 0 0 0 -785.6752816206155 474.9194831235783" style="fill: none;"></path><path class="hiddenArcs" id="arc-chart-008dae29-11" d="M-917.5344523849135 -31.059495918591463A918.0600000000001 918.0600000000001 0 0 0 -910.4744952883254 117.77247993257663" style="fill: none;"></path><path class="hiddenArcs" id="arc-chart-008dae29-12" d="M-917.1779862619699 -40.233134558941764A918.0600000000001 918.0600000000001 0 0 1 -869.0659012768324 -295.9030632451902" style="fill: none;"></path><path class="hiddenArcs" id="arc-chart-008dae29-13" d="M-866.063467028357 -304.578782384496A918.0600000000001 918.0600000000001 0 0 1 -786.8288095753621 -473.00590696334723" style="fill: none;"></path><path class="hiddenArcs" id="arc-chart-008dae29-14" d="M-782.0594882270178 -480.8504138233585A918.0600000000001 918.0600000000001 0 0 1 -702.7167106581932 -590.782014081107" style="fill: none;"></path><path class="hiddenArcs" id="arc-chart-008dae29-15" d="M-696.7738534378237 -597.7795252142769A918.0600000000001 918.0600000000001 0 0 1 -447.02045654311746 -801.8770947171287" style="fill: none;"></path><path class="hiddenArcs" id="arc-chart-008dae29-16" d="M-438.97946840489135 -806.3071312589012A918.0600000000001 918.0600000000001 0 0 1 -9.180446990767468 -918.0140973825238" style="fill: none;"></path><path class="chord" d="M591.8169466577641,-588.4809781536538A834.6,834.6,0,0,1,761.9935651954931,340.4746196130658Q0,0,505.9963657289259,663.7204515977484A834.6,834.6,0,0,1,-437.2388316411527,710.9003897207258Q0,0,591.8169466577641,-588.4809781536538Z" style="fill: url(&quot;#linkGrad-chart-008dae29-3-7&quot;); opacity: 0.8;"></path><path class="chord" d="M66.65956610580169,-831.9336886114099A834.6,834.6,0,0,1,449.33199643183923,-703.3192141428938Q0,0,-399.07224400444665,-733.0064829626375A834.6,834.6,0,0,1,-8.345860900697698,-834.5582703477488Q0,0,66.65956610580169,-831.9336886114099Z" style="fill: url(&quot;#linkGrad-chart-008dae29-1-16&quot;); opacity: 0.8;"></path><path class="chord" d="M724.1503757357488,414.92576844753074A834.6,834.6,0,0,1,570.484786942456,609.1832793726536Q0,0,-602.4331762561942,-577.6083691792159A834.6,834.6,0,0,1,-406.3822332210159,-728.9791770155715Q0,0,724.1503757357488,414.92576844753074Z" style="fill: url(&quot;#linkGrad-chart-008dae29-5-15&quot;); opacity: 0.8;"></path><path class="chord" d="M-600.2821090941552,579.8435560575567A834.6,834.6,0,0,1,-709.8971659141034,438.86578110753175Q0,0,-714.2502560187413,431.7449846577984A834.6,834.6,0,0,1,-789.7498483336113,269.9117208589465Q0,0,-600.2821090941552,579.8435560575567Z" style="fill: url(&quot;#linkGrad-chart-008dae29-9-10&quot;); opacity: 0.8;"></path><path class="chord" d="M-796.7684726971074,248.42938818891548A834.6,834.6,0,0,1,-826.5920607020425,115.33744051413115Q0,0,-833.7981693290635,-36.57557687176524A834.6,834.6,0,0,1,-816.7067810589886,-171.89297185244462Q0,0,-796.7684726971074,248.42938818891548Z" style="fill: url(&quot;#linkGrad-chart-008dae29-10-12&quot;); opacity: 0.8;"></path><path class="chord" d="M510.6971942879718,-660.1102451457588A834.6,834.6,0,0,1,591.8169466577641,-588.4809781536538Q0,0,-764.9249890374851,-333.8366683664382A834.6,834.6,0,0,1,-715.2989177957837,-430.0053699666793Q0,0,510.6971942879718,-660.1102451457588Z" style="fill: url(&quot;#linkGrad-chart-008dae29-3-13&quot;); opacity: 0.8;"></path><path class="chord" d="M-816.7067810589886,-171.89297185244462A834.6,834.6,0,0,1,-790.0599102516658,-269.00278476835473Q0,0,-710.9631711154707,-437.1367398394168A834.6,834.6,0,0,1,-653.1410654830298,-519.5805121246299Q0,0,-816.7067810589886,-171.89297185244462Z" style="fill: url(&quot;#linkGrad-chart-008dae29-12-14&quot;); opacity: 0.8;"></path><path class="chord" d="M758.5507763840851,348.07740467761136A834.6,834.6,0,0,1,728.2633570492166,407.663639265762Q0,0,-551.9553308618348,626.0211439985095A834.6,834.6,0,0,1,-600.2821090941552,579.8435560575567Q0,0,758.5507763840851,348.07740467761136Z" style="fill: url(&quot;#linkGrad-chart-008dae29-4-9&quot;); opacity: 0.8;"></path><path class="chord" d="M-498.68269869414297,669.2329385371933A834.6,834.6,0,0,1,-545.6676262216231,631.5093045186738Q0,0,-827.7040866257504,107.06589084779694A834.6,834.6,0,0,1,-833.271680505173,47.06874194287344Q0,0,-498.68269869414297,669.2329385371933Z" style="fill: url(&quot;#linkGrad-chart-008dae29-8-11&quot;); opacity: 0.8;"></path><path class="chord" d="M5.110451092841905e-14,-834.6A834.6,834.6,0,0,1,58.337034924078516,-832.5586768248031Q0,0,456.34260494138465,-698.7908033992087A834.6,834.6,0,0,1,504.07066720741363,-665.1841267356527Q0,0,5.110451092841905e-14,-834.6Z" style="fill: url(&quot;#linkGrad-chart-008dae29-0-2&quot;); opacity: 0.8;"></path><path class="chord" d="M564.3645316771226,614.8575732516126A834.6,834.6,0,0,1,529.5257701084179,645.1043472114313Q0,0,-633.430775852567,-543.4359320129789A834.6,834.6,0,0,1,-602.4331762561942,-577.6083691792159Q0,0,564.3645316771226,614.8575732516126Z" style="fill: url(&quot;#linkGrad-chart-008dae29-6-15&quot;); opacity: 0.8;"></path><path class="chord" d="M-437.2388316411527,710.9003897207258A834.6,834.6,0,0,1,-468.0880126616132,690.978127296734Q0,0,-778.8699655562584,-299.86453067075615A834.6,834.6,0,0,1,-764.9249890374851,-333.8366683664382Q0,0,-437.2388316411527,710.9003897207258Z" style="fill: url(&quot;#linkGrad-chart-008dae29-7-13&quot;); opacity: 0.8;"></path><path class="chord" d="M-468.0880126616132,690.978127296734A834.6,834.6,0,0,1,-491.96554691988564,674.1862210426863Q0,0,-833.271680505173,47.06874194287344A834.6,834.6,0,0,1,-834.408022947215,17.900034673710294Q0,0,-468.0880126616132,690.978127296734Z" style="fill: url(&quot;#linkGrad-chart-008dae29-7-11&quot;); opacity: 0.8;"></path><path class="chord" d="M-834.5915419837771,-3.757399252320576A834.6,834.6,0,0,1,-834.1222294408304,-28.23590538053769Q0,0,-787.3304245712336,-276.8898021677236A834.6,834.6,0,0,1,-778.8699655562584,-299.86453067075615Q0,0,-834.5915419837771,-3.757399252320576Z" style="fill: url(&quot;#linkGrad-chart-008dae29-11-13&quot;); opacity: 0.8;"></path><path class="chord" d="M-789.7498483336113,269.9117208589465A834.6,834.6,0,0,1,-796.7684726971074,248.42938818891548Q0,0,-653.1410654830298,-519.5805121246299A834.6,834.6,0,0,1,-638.8333733256301,-537.0745582555518Q0,0,-789.7498483336113,269.9117208589465Z" style="fill: url(&quot;#linkGrad-chart-008dae29-10-14&quot;); opacity: 0.8;"></path><path class="chord" d="M529.5257701084179,645.1043472114313A834.6,834.6,0,0,1,512.6081600179258,658.6273865267345Q0,0,-834.408022947215,17.900034673710294A834.6,834.6,0,0,1,-834.5915419837771,-3.757399252320576Q0,0,529.5257701084179,645.1043472114313Z" style="fill: url(&quot;#linkGrad-chart-008dae29-6-11&quot;); opacity: 0.8;"></path></g></svg>